<?xml version="1.0" encoding="UTF-8"?>
<svg width="512" height="512" viewBox="0 0 512 512" fill="none" xmlns="http://www.w3.org/2000/svg">
  <path d="M256 50C142.2 50 50 142.2 50 256s92.2 206 206 206 206-92.2 206-206S369.8 50 256 50zm0 372c-91.7 0-166-74.3-166-166S164.3 90 256 90s166 74.3 166 166-74.3 166-166 166z" fill="#1E1B4B"/>
  <path d="M320 256c0 35.3-28.7 64-64 64s-64-28.7-64-64 28.7-64 64-64 64 28.7 64 64zm40-100c0 22.1-17.9 40-40 40s-40-17.9-40-40 17.9-40 40-40 40 17.9 40 40z" fill="#1E1B4B"/>
</svg>