<?xml version="1.0" encoding="utf-8"?>
<!-- Generator: Adobe Illustrator 24.1.2, SVG Export Plug-In . SVG Version: 6.00 Build 0)  -->
<svg version="1.1" id="Capa_1" xmlns="http://www.w3.org/2000/svg" xmlns:xlink="http://www.w3.org/1999/xlink" x="0px" y="0px"
	 viewBox="0 0 800 800" style="enable-background:new 0 0 800 800;" xml:space="preserve">
<g>
	<path d="M327.07,400.86c1.63,2.14,2.45,4.77,2.45,7.9c0,4.43-1.72,7.83-5.16,10.21c-3.44,2.38-8.45,3.57-15.04,3.57h-26.11v-50.5
		h24.67c6.16,0,10.88,1.18,14.17,3.53c3.29,2.36,4.94,5.56,4.94,9.59c0,2.45-0.59,4.64-1.77,6.56c-1.18,1.92-2.83,3.44-4.94,4.54
		C323.18,397.19,325.44,398.72,327.07,400.86 M294.83,380.84v11.9h11.61c2.89,0,5.07-0.5,6.56-1.51c1.49-1.01,2.24-2.5,2.24-4.47
		c0-1.97-0.75-3.45-2.24-4.44c-1.49-0.99-3.68-1.48-6.56-1.48H294.83z M315.42,412.22c1.56-1.01,2.34-2.57,2.34-4.69
		c0-4.18-3.1-6.28-9.31-6.28h-13.63v12.48h13.63C311.54,413.74,313.86,413.23,315.42,412.22"/>
	<rect x="352.83" y="372.04" width="11.69" height="50.5"/>
	<polygon points="401.37,381.56 385.21,381.56 385.21,372.04 429.22,372.04 429.22,381.56 413.06,381.56 413.06,422.54 
		401.37,422.54 	"/>
	<path d="M486.13,413.02v9.52h-38.16v-7.57l19.48-18.39c2.07-1.97,3.46-3.67,4.18-5.09c0.72-1.42,1.08-2.83,1.08-4.22
		c0-2.02-0.69-3.57-2.06-4.65c-1.37-1.08-3.38-1.62-6.02-1.62c-2.21,0-4.21,0.42-5.99,1.26c-1.78,0.84-3.27,2.11-4.47,3.79
		l-8.51-5.48c1.97-2.93,4.69-5.23,8.15-6.89c3.46-1.66,7.43-2.49,11.9-2.49c3.75,0,7.03,0.61,9.85,1.84c2.81,1.22,5,2.96,6.56,5.19
		c1.56,2.24,2.34,4.87,2.34,7.9c0,2.74-0.58,5.31-1.73,7.72c-1.15,2.41-3.39,5.15-6.71,8.23l-11.61,10.96H486.13z"/>
	<path d="M552.43,400.86c1.63,2.14,2.45,4.77,2.45,7.9c0,4.43-1.72,7.83-5.16,10.21c-3.44,2.38-8.45,3.57-15.04,3.57h-26.11v-50.5
		h24.67c6.16,0,10.88,1.18,14.17,3.53c3.29,2.36,4.94,5.56,4.94,9.59c0,2.45-0.59,4.64-1.77,6.56c-1.18,1.92-2.83,3.44-4.94,4.54
		C548.53,397.19,550.79,398.72,552.43,400.86 M520.18,380.84v11.9h11.61c2.89,0,5.07-0.5,6.56-1.51c1.49-1.01,2.24-2.5,2.24-4.47
		c0-1.97-0.75-3.45-2.24-4.44c-1.49-0.99-3.68-1.48-6.56-1.48H520.18z M540.78,412.22c1.56-1.01,2.34-2.57,2.34-4.69
		c0-4.18-3.1-6.28-9.31-6.28h-13.63v12.48h13.63C536.89,413.74,539.21,413.23,540.78,412.22"/>
	<rect x="578.18" y="372.04" width="11.69" height="50.5"/>
	<path d="M650.39,396.5h10.68v20.49c-2.74,2.07-5.92,3.65-9.52,4.76c-3.61,1.1-7.24,1.66-10.89,1.66c-5.24,0-9.95-1.12-14.14-3.35
		c-4.18-2.24-7.47-5.34-9.85-9.31c-2.38-3.97-3.57-8.45-3.57-13.45s1.19-9.49,3.57-13.45c2.38-3.97,5.69-7.07,9.92-9.31
		c4.23-2.24,8.99-3.35,14.28-3.35c4.42,0,8.44,0.75,12.05,2.24c3.61,1.49,6.64,3.65,9.09,6.49l-7.5,6.93
		c-3.61-3.8-7.96-5.7-13.06-5.7c-3.22,0-6.08,0.67-8.58,2.02c-2.5,1.35-4.45,3.25-5.84,5.7c-1.39,2.45-2.09,5.27-2.09,8.44
		c0,3.13,0.7,5.92,2.09,8.37c1.39,2.45,3.33,4.36,5.81,5.73c2.48,1.37,5.3,2.06,8.48,2.06c3.36,0,6.4-0.72,9.09-2.16V396.5z"/>
	<path d="M208.23,383.66c1.32-3.72,2.03-7.72,2.03-11.89c0-19.68-15.95-35.63-35.63-35.63c-19.14,0-34.75,15.09-35.59,34.02h-0.03
		v0.69c-0.01,0.31-0.01,0.61-0.01,0.92c0,0.31,0.01,0.61,0.01,0.92v48.03h0.01c0.13,24.4,19.95,44.15,44.39,44.15
		c24.52,0,44.4-19.88,44.4-44.39C227.8,405.15,220.04,391.63,208.23,383.66 M183.4,443.67c-12.39,0-22.52-9.72-23.16-21.95
		c-0.03-0.41-0.04-0.84-0.04-1.26c0-1.86,0.22-3.67,0.64-5.39c0.08-0.35,0.17-0.68,0.26-1.02h0.01c0.49-1.7,1.16-3.33,2.01-4.85
		l1.36-3.28l3.65-8.78l7.36-17.72c-0.29,0.02-0.57,0.03-0.86,0.03c-1.81,0-3.52-0.43-5.03-1.2c-1.81-0.91-3.33-2.29-4.41-3.98
		c-0.79-1.23-1.35-2.63-1.6-4.13c-0.11-0.61-0.16-1.25-0.16-1.9c0-6.19,5.02-11.21,11.2-11.21s11.2,5.02,11.2,11.21
		c0,0.46-0.03,0.91-0.08,1.36c-0.08,0.66-0.22,1.3-0.41,1.93c-0.21,0.69-0.49,1.35-0.83,1.98l-1.06,2.54l-9.67,23.27
		c2.93-1.34,6.19-2.08,9.61-2.08c4.42,0,8.56,1.24,12.08,3.39c6.67,4.07,11.12,11.42,11.12,19.81
		C206.61,433.28,196.22,443.67,183.4,443.67"/>
</g>
</svg>
